<?xml version="1.0" encoding="utf-8"?>
<?xml-stylesheet type="text/xsl" href="rss1.xsl"?>
<rss version="2.0" xmlns:atom="http://www.w3.org/2005/Atom" xmlns:content="http://purl.org/rss/1.0/modules/content/" xmlns:dc="http://purl.org/dc/elements/1.1/" xmlns:media="http://search.yahoo.com/mrss/">
<channel>
 <title>Getty</title>
 <link>http://www.gettyimg.com/</link>
 <atom:link href="http://www.gettyimg.com/" rel="self" type="application/rss+xml" />

 
                <item>
                <title><![CDATA[【SD Live Performances】SDTV - Taylor Swift - You Belong With Me (GMTV, UK, 2009) [caladan]]]></title>
                <link><![CDATA[https://sharemania.us/threads/taylor-swift-you-belong-with-me-gmtv-uk-2009-caladan.221769/]]></link>
                <description><![CDATA[<article>
<blockquote class="messageText SelectQuoteContainer ugc baseHtml">
I deinterlaced the video with QTGMC, deblocked, slightly denoised, resized to proper aspect ratio, cropped it just a little, saved to MP4 AVC CRF 18 preset Slower. The source wasn't very good but now looks better.<br>
<br>
<img src="https://i.postimg.cc/bJjRbHt2/Taylor-Swift-You-Belong-With-Me-GMTV-UK-2009-mp4.jpg" class="bbCodeImage LbImage" alt="[​IMG]" data-url="https://i.postimg.cc/bJjRbHt2/Taylor-Swift-You-Belong-With-Me-GMTV-UK-2009-mp4.jpg" style=""><br>
<br>
<div class="ToggleTriggerAnchor bbCodeSpoilerContainer">
<button type="button" class="button bbCodeSpoilerButton ToggleTrigger Tooltip JsOnly" data-target="> .SpoilerTarget"><span>Spoiler: <span class="SpoilerTitle">MediaInfo</span></span></button>
<div class="SpoilerTarget bbCodeSpoilerText">General<br>
Complete name : C:\Work\-\Taylor Swift - You Belong With Me (GMTV, UK, 2009).mp4<br>
Format : MPEG-4<br>
Format profile : Base Media<br>
Codec ID : isom (isom/iso2/avc1/mp41)<br>
File size : 133 MiB<br>
Duration : 3 min 42 s<br>
Overall bit rate : 5 020 kb/s<br>
Writing application : Lavf58.76.100<br>
<br>
Video<br>
ID : 1<br>
Format : AVC<br>
Format/Info : Advanced Video Codec<br>
Format profile : High@L3.2<br>
Format settings : CABAC / 8 Ref Frames<br>
Format settings, CABAC : Yes<br>
Format settings, Reference frames : 8 frames<br>
Codec ID : avc1<br>
Codec ID/Info : Advanced Video Coding<br>
Duration : 3 min 42 s<br>
Source duration : 3 min 42 s<br>
Bit rate : 4 621 kb/s<br>
Maximum bit rate : 4 821 kb/s<br>
Width : 1 024 pixels<br>
Height : 572 pixels<br>
Display aspect ratio : 16:9<br>
Frame rate mode : Constant<br>
Frame rate : 50.000 FPS<br>
Color space : YUV<br>
Chroma subsampling : 4:2:0<br>
Bit depth : 8 bits<br>
Scan type : Progressive<br>
Bits/(Pixel*Frame) : 0.158<br>
Stream size : 123 MiB (92%)<br>
Source stream size : 128 MiB (96%)<br>
Writing library : x264 core 164<br>
Encoding settings : cabac=1 / ref=8 / deblock=1:0:0 / analyse=0x3:0x133 / me=umh / subme=9 / psy=1 / psy_rd=1.00:0.00 / mixed_ref=1 / me_range=16 / chroma_me=1 / trellis=2 / 8x8dct=1 / cqm=0 / deadzone=21,11 / fast_pskip=1 / chroma_qp_offset=-2 / threads=6 / lookahead_threads=1 / sliced_threads=0 / nr=0 / decimate=1 / interlaced=0 / bluray_compat=0 / constrained_intra=0 / bframes=3 / b_pyramid=2 / b_adapt=2 / b_bias=0 / direct=3 / weightb=1 / open_gop=0 / weightp=2 / keyint=250 / keyint_min=25 / scenecut=40 / intra_refresh=0 / rc_lookahead=60 / rc=crf / mbtree=1 / crf=18.0 / qcomp=0.60 / qpmin=0 / qpmax=69 / qpstep=4 / ip_ratio=1.40 / aq=1:1.00<br>
mdhd_Duration : 222540<br>
Codec configuration box : avcC<br>
<br>
Audio<br>
ID : 2<br>
Format : MPEG Audio<br>
Format version : Version 1<br>
Format profile : Layer 2<br>
Codec ID : mp4a-6B<br>
Duration : 3 min 42 s<br>
Source duration : 3 min 42 s<br>
Bit rate mode : Constant<br>
Bit rate : 192 kb/s<br>
Channel(s) : 2 channels<br>
Sampling rate : 48.0 kHz<br>
Compression mode : Lossy<br>
Stream size : 5.09 MiB (4%)<br>
Source stream size : 5.09 MiB (4%)<br>
Default : Yes<br>
Alternate group : 1<br>
mdhd_Duration : 222568</div>
</div><br>
<div class="bbCodeBlock bbCodeVfcHH HiddenContent">
<div class="attribution type">Hidden Content:</div>
<blockquote>You must reply before you can see the hidden data contained here.</blockquote>
</div>
<div class="messageTextEndMarker">&nbsp;</div>
</blockquote>
</article>]]></description>
                <author><![CDATA[caladan]]></author>
                </item>

                
                <item>
                <title><![CDATA[【Requests】[REQ AUD] - Does anyone have this albums from 'Los de Marras' on Qobuz?]]></title>
                <link><![CDATA[https://sharemania.us/threads/does-anyone-have-this-albums-from-los-de-marras-on-qobuz.221770/]]></link>
                <description><![CDATA[<article>
<blockquote class="messageText SelectQuoteContainer ugc baseHtml">
<span style="font-size: 22px"><b>Does anyone have or could upload this albums from 'Los de Marras' Qobuz?</b></span><br>
<br>
<a href="https://www.qobuz.com/us-en/album/peligro-esperanza-los-de-marras/w66d4ax59pjjb" target="_blank" class="externalLink" rel="nofollow">https://www.qobuz.com/us-en/album/peligro-esperanza-los-de-marras/w66d4ax59pjjb</a><br>
<br>
<br>
<a href="https://www.qobuz.com/us-en/album/surrealismo-los-de-marras/u0w1ty0prsd0a" target="_blank" class="externalLink" rel="nofollow">https://www.qobuz.com/us-en/album/surrealismo-los-de-marras/u0w1ty0prsd0a</a><br>
<br>
<br>
<a href="https://www.qobuz.com/us-en/album/reamanecer-los-de-marras/b6jyb3oydjacc" target="_blank" class="externalLink" rel="nofollow">https://www.qobuz.com/us-en/album/reamanecer-los-de-marras/b6jyb3oydjacc</a><br>
<br>
<br>
I would really appreciate love it! ❤️
<div class="messageTextEndMarker">&nbsp;</div>
</blockquote>
</article>]]></description>
                <author><![CDATA[WolfMarkPolo]]></author>
                </item>

                </channel></rss>